<?xml version="1.0" encoding="UTF-8"?>
<!--Generator: Apple Native CoreSVG 175.5-->
<!DOCTYPE svg
PUBLIC "-//W3C//DTD SVG 1.1//EN"
       "http://www.w3.org/Graphics/SVG/1.1/DTD/svg11.dtd">
<svg version="1.1" xmlns="http://www.w3.org/2000/svg" xmlns:xlink="http://www.w3.org/1999/xlink" width="20.8984" height="20.8887">
 <g>
  <rect height="20.8887" opacity="0" width="20.8984" x="0" y="0"/>
  <path d="M9.46289 20.8789L11.4355 20.8789C12.1875 20.8789 12.7637 20.4199 12.9395 19.6973L13.3594 17.8711L13.6719 17.7637L15.2637 18.7402C15.8984 19.1406 16.6309 19.043 17.168 18.5059L18.5352 17.1484C19.0723 16.6113 19.1699 15.8691 18.7695 15.2441L17.7734 13.6621L17.8906 13.3691L19.7168 12.9395C20.4297 12.7637 20.8984 12.1777 20.8984 11.4355L20.8984 9.50195C20.8984 8.75977 20.4395 8.17383 19.7168 7.99805L17.9102 7.55859L17.7832 7.24609L18.7793 5.66406C19.1797 5.03906 19.082 4.30664 18.5449 3.75977L17.1777 2.39258C16.6504 1.86523 15.918 1.76758 15.2832 2.1582L13.6914 3.13477L13.3594 3.00781L12.9395 1.18164C12.7637 0.458984 12.1875 0 11.4355 0L9.46289 0C8.71094 0 8.13477 0.458984 7.95898 1.18164L7.5293 3.00781L7.19727 3.13477L5.61523 2.1582C4.98047 1.76758 4.23828 1.86523 3.71094 2.39258L2.35352 3.75977C1.81641 4.30664 1.70898 5.03906 2.11914 5.66406L3.10547 7.24609L2.98828 7.55859L1.18164 7.99805C0.458984 8.17383 0 8.75977 0 9.50195L0 11.4355C0 12.1777 0.46875 12.7637 1.18164 12.9395L3.00781 13.3691L3.11523 13.6621L2.12891 15.2441C1.71875 15.8691 1.82617 16.6113 2.36328 17.1484L3.7207 18.5059C4.25781 19.043 5 19.1406 5.63477 18.7402L7.2168 17.7637L7.5293 17.8711L7.95898 19.6973C8.13477 20.4199 8.71094 20.8789 9.46289 20.8789ZM9.61914 19.3555C9.45312 19.3555 9.36523 19.2871 9.33594 19.1309L8.75 16.709C8.1543 16.5625 7.59766 16.3281 7.17773 16.0645L5.04883 17.373C4.93164 17.4609 4.80469 17.4414 4.6875 17.3242L3.53516 16.1719C3.42773 16.0645 3.41797 15.9473 3.49609 15.8105L4.80469 13.7012C4.58008 13.291 4.32617 12.7344 4.16992 12.1387L1.74805 11.5625C1.5918 11.5332 1.52344 11.4453 1.52344 11.2793L1.52344 9.64844C1.52344 9.47266 1.58203 9.39453 1.74805 9.36523L4.16016 8.7793C4.31641 8.14453 4.60938 7.56836 4.78516 7.20703L3.48633 5.09766C3.39844 4.95117 3.4082 4.83398 3.51562 4.7168L4.67773 3.58398C4.79492 3.4668 4.90234 3.44727 5.04883 3.53516L7.1582 4.81445C7.57812 4.58008 8.17383 4.33594 8.75977 4.16992L9.33594 1.74805C9.36523 1.5918 9.45312 1.52344 9.61914 1.52344L11.2793 1.52344C11.4453 1.52344 11.5332 1.5918 11.5527 1.74805L12.1484 4.18945C12.7539 4.3457 13.2812 4.58984 13.7207 4.82422L15.8398 3.53516C15.9961 3.44727 16.0938 3.4668 16.2207 3.58398L17.373 4.7168C17.4902 4.83398 17.4902 4.95117 17.4023 5.09766L16.1035 7.20703C16.2891 7.56836 16.5723 8.14453 16.7285 8.7793L19.1504 9.36523C19.3066 9.39453 19.375 9.47266 19.375 9.64844L19.375 11.2793C19.375 11.4453 19.2969 11.5332 19.1504 11.5625L16.7188 12.1387C16.5625 12.7344 16.3184 13.291 16.084 13.7012L17.3926 15.8105C17.4707 15.9473 17.4707 16.0645 17.3535 16.1719L16.2109 17.3242C16.084 17.4414 15.9668 17.4609 15.8398 17.373L13.7109 16.0645C13.291 16.3281 12.7441 16.5625 12.1484 16.709L11.5527 19.1309C11.5332 19.2871 11.4453 19.3555 11.2793 19.3555ZM10.4492 14.1699C12.4902 14.1699 14.1699 12.4902 14.1699 10.4395C14.1699 8.4082 12.4902 6.72852 10.4492 6.72852C8.4082 6.72852 6.71875 8.4082 6.71875 10.4395C6.71875 12.4805 8.39844 14.1699 10.4492 14.1699ZM10.4492 12.6562C9.23828 12.6562 8.24219 11.6602 8.24219 10.4395C8.24219 9.23828 9.23828 8.24219 10.4492 8.24219C11.6406 8.24219 12.6367 9.23828 12.6367 10.4395C12.6367 11.6504 11.6406 12.6562 10.4492 12.6562Z" fill="#ffffff" fill-opacity="0.85"/>
 </g>
</svg>
