<svg width="18" height="14" viewBox="0 0 18 14" fill="none" xmlns="http://www.w3.org/2000/svg">
<path d="M1.5 3.66666L8.075 8.05C8.34888 8.23273 8.67075 8.33025 9 8.33025C9.32925 8.33025 9.65112 8.23273 9.925 8.05L16.5 3.66666M3.16667 12.8333H14.8333C15.2754 12.8333 15.6993 12.6577 16.0118 12.3452C16.3244 12.0326 16.5 11.6087 16.5 11.1667V2.83333C16.5 2.3913 16.3244 1.96738 16.0118 1.65482C15.6993 1.34226 15.2754 1.16666 14.8333 1.16666H3.16667C2.72464 1.16666 2.30072 1.34226 1.98816 1.65482C1.67559 1.96738 1.5 2.3913 1.5 2.83333V11.1667C1.5 11.6087 1.67559 12.0326 1.98816 12.3452C2.30072 12.6577 2.72464 12.8333 3.16667 12.8333Z" stroke="#ECEBED" stroke-width="1.4" stroke-linecap="round" stroke-linejoin="round"/>
</svg>
