<svg width="24" height="24" viewBox="0 0 24 24" fill="none" xmlns="http://www.w3.org/2000/svg">
<path fill-rule="evenodd" clip-rule="evenodd" d="M9.5999 4.79997C8.32686 4.79997 7.10596 5.30568 6.20579 6.20585C5.30561 7.10603 4.7999 8.32693 4.7999 9.59997C4.7999 10.873 5.30561 12.0939 6.20579 12.9941C7.10596 13.8943 8.32686 14.4 9.5999 14.4C10.8729 14.4 12.0938 13.8943 12.994 12.9941C13.8942 12.0939 14.3999 10.873 14.3999 9.59997C14.3999 8.32693 13.8942 7.10603 12.994 6.20585C12.0938 5.30568 10.8729 4.79997 9.5999 4.79997ZM2.3999 9.59997C2.39976 8.46681 2.66707 7.34962 3.18011 6.33926C3.69314 5.32889 4.43741 4.45388 5.35238 3.7854C6.26734 3.11691 7.32718 2.67382 8.44568 2.49217C9.56418 2.31051 10.7098 2.39542 11.7893 2.73999C12.8688 3.08455 13.8517 3.67905 14.6581 4.47512C15.4645 5.2712 16.0717 6.24637 16.4301 7.32133C16.7886 8.39629 16.8883 9.54068 16.7211 10.6614C16.5539 11.7822 16.1245 12.8476 15.4679 13.7712L21.2483 19.5516C21.4669 19.7779 21.5878 20.081 21.5851 20.3956C21.5824 20.7103 21.4562 21.0113 21.2337 21.2338C21.0112 21.4562 20.7102 21.5824 20.3956 21.5852C20.0809 21.5879 19.7778 21.467 19.5515 21.2484L13.7723 15.4692C12.6951 16.2351 11.4279 16.6898 10.1095 16.7833C8.79111 16.8769 7.47239 16.6057 6.29786 15.9995C5.12334 15.3934 4.13833 14.4756 3.45077 13.3468C2.76321 12.218 2.39965 10.9217 2.3999 9.59997Z" fill="#181A1C"/>
</svg>
